<svg width="112" height="101" viewBox="0 0 112 101" version="1.1" xmlns="http://www.w3.org/2000/svg" xmlns:xlink="http://www.w3.org/1999/xlink">
<g id="Canvas" fill="none">
<g id="display">
<g id="Group">
<g id="Vector">
<path d="M 105.918 0.176963L 105.918 -1.87055e-07L 105.37 -1.87055e-07L 6.57541 -1.87055e-07L 6.02713 -1.87055e-07L 6.02713 0.176963C 2.79487 0.416999 0.383398 3.19541 0 6.56759L 0 7.16115L 0 77.4962C 0 78.8601 0.328496 80.0097 0.876783 81.0451C 2.13824 83.4449 4.00033 84.6574 6.5756 84.6574L 42.63 84.6574L 42.63 94.4832L 35.781 94.4832C 34.0825 94.4832 32.7674 95.9104 32.7674 97.7417C 32.7674 99.573 34.0825 101 35.781 101L 76.1643 101C 77.8627 101 79.2329 99.5728 79.2329 97.7417C 79.2329 95.9102 77.8629 94.4832 76.1643 94.4832L 69.3153 94.4832L 69.3153 84.6574L 105.37 84.6574C 107.946 84.6574 109.824 83.4449 111.068 81.0451C 111.633 79.959 112 78.797 112 77.4962L 112 7.16135L 112 6.56779C 111.616 3.19541 109.041 0.416999 105.918 0.176963ZM 105.918 7.16135L 105.918 77.4964C 105.918 77.9132 105.754 78.09 105.37 78.09L 6.57541 78.09C 6.19202 78.09 6.02713 77.9132 6.02713 77.4964L 6.02713 7.16135L 6.02713 6.56779L 105.918 6.56779L 105.918 7.16135L 105.918 7.16135Z" fill="#84DBFF"/>
</g>
</g>
</g>
</g>
</svg>

