<svg width="14" height="13" viewBox="0 0 14 13" version="1.1" xmlns="http://www.w3.org/2000/svg" xmlns:xlink="http://www.w3.org/1999/xlink">
<g id="Canvas" fill="none">
<g id="editicon">
<g id="Group">
<g id="Vector">
<path d="M 12.5246 3.92332L 11.9501 4.49815L 8.50245 1.05096L 9.07701 0.476074C 9.71169 -0.158691 10.7409 -0.158691 11.3756 0.476074L 12.5246 1.62539C 13.1585 2.25981 13.1585 3.28861 12.5246 3.92332ZM 4.48051 10.8173C 4.32185 10.9759 4.32185 11.2329 4.48051 11.3916C 4.63926 11.5511 4.89635 11.5511 5.05501 11.3916L 11.3756 5.07263L 10.8004 4.49775L 4.48051 10.8173ZM 1.60752 7.94492C 1.44878 8.10371 1.44878 8.36057 1.60752 8.51934C 1.76618 8.67804 2.02328 8.67804 2.18202 8.51934L 8.50245 2.1999L 7.92814 1.62539L 1.60752 7.94492ZM 9.07626 2.77398L 2.75639 9.0938C 2.43904 9.41054 2.43984 9.92546 2.75639 10.2428C 3.07388 10.5602 3.58796 10.5617 3.90615 10.242L 10.226 3.92332L 9.07626 2.77398ZM 3.90451 11.9646C 3.71019 11.7701 3.61652 11.5235 3.58167 11.2694C 3.49907 11.2822 3.41588 11.294 3.33089 11.294C 2.89681 11.294 2.48911 11.1244 2.18202 10.8173C 1.87493 10.5094 1.70593 10.1023 1.70593 9.66823C 1.70593 9.58908 1.7178 9.51195 1.72894 9.43505C 1.4663 9.39929 1.22354 9.28424 1.0331 9.0938C 1.01483 9.07566 1.00853 9.05104 0.991895 9.03116L 0 13L 3.95847 12.0091C 3.94103 11.9932 3.92128 11.9813 3.90451 11.9646Z" transform="translate(0.844727 0)" fill="#F2F2F2"/>
</g>
</g>
</g>
</g>
</svg>

