<?xml version="1.0" encoding="UTF-8" standalone="no"?>
<svg
   xmlns:dc="http://purl.org/dc/elements/1.1/"
   xmlns:cc="http://creativecommons.org/ns#"
   xmlns:rdf="http://www.w3.org/1999/02/22-rdf-syntax-ns#"
   xmlns:svg="http://www.w3.org/2000/svg"
   xmlns="http://www.w3.org/2000/svg"
   viewBox="0 0 348.42667 113.10667"
   height="113.10667"
   width="348.42667"
   xml:space="preserve"
   id="svg2"
   version="1.1"><metadata
     id="metadata8"><rdf:RDF><cc:Work
         rdf:about=""><dc:format>image/svg+xml</dc:format><dc:type
           rdf:resource="http://purl.org/dc/dcmitype/StillImage" /></cc:Work></rdf:RDF></metadata><defs
     id="defs6" /><g
     transform="matrix(1.3333333,0,0,-1.3333333,0,113.10667)"
     id="g10"><g
       transform="scale(0.1)"
       id="g12"><path
         id="path14"
         style="fill:#4997bc;fill-opacity:1;fill-rule:nonzero;stroke:none"
         d="m 1643.92,252.578 c -20.37,0 -30.54,8.516 -30.54,25.516 v 286.554 c 0,17.883 9.77,26.774 29.29,26.774 19.51,0 29.3,-8.891 29.3,-26.774 V 278.094 c 0,-17 -9.36,-25.516 -28.05,-25.516" /><path
         id="path16"
         style="fill:#ffffff;fill-opacity:1;fill-rule:nonzero;stroke:none"
         d="m 382.52,496.715 c 0,30.742 -32.172,46.137 -96.54,46.137 H 153.273 c -61.9058,0 -92.8433,-15.825 -92.8433,-47.368 V 310.441 H 303.41 c 52.742,0 79.11,16.375 79.11,49.227 z M 444.227,360.27 c 0,-66.883 -50.254,-100.309 -150.762,-100.309 H 60.4297 V 103.32 C 60.4297,85.0664 50.2539,75.9219 29.9102,75.9219 9.96875,75.9219 0,85.0664 0,103.32 v 393.395 c 0,63.969 53.3672,95.937 160.133,95.937 h 115.851 c 112.137,0 168.243,-31.566 168.243,-94.679 V 360.27" /><path
         id="path18"
         style="fill:#4997bc;fill-opacity:1;fill-rule:nonzero;stroke:none"
         d="m 560.582,256.871 c -19.516,0 -29.285,8.914 -29.285,26.774 v 286.531 c 0,17.027 9.344,25.543 28.031,25.543 20.367,0 30.539,-8.516 30.539,-25.543 V 283.645 c 0,-17.86 -9.769,-26.774 -29.285,-26.774" /><path
         id="path20"
         style="fill:#ffffff;fill-opacity:1;fill-rule:nonzero;stroke:none"
         d="m 841.438,259.961 c -109.653,0 -164.473,32.801 -164.473,98.449 v 136.422 c 0,65.223 49.851,97.82 149.527,97.82 h 222.418 c 19.11,0 28.65,-8.113 28.65,-24.285 0,-17.054 -9.54,-25.515 -28.65,-25.515 H 818.383 c -53.996,0 -80.969,-15.395 -80.969,-46.137 v -135.82 c 0,-33.629 30.941,-50.454 92.801,-50.454 h 218.695 c 17.45,0 26.17,-8.941 26.17,-26.796 0,-15.797 -8.72,-23.684 -26.17,-23.684 H 841.438" /><path
         id="path22"
         style="fill:#ffffff;fill-opacity:1;fill-rule:nonzero;stroke:none"
         d="m 1974.65,461.203 166.97,127.106 c 5.8,5.375 12.25,8.086 19.31,8.086 8.29,0 15.27,-3.215 20.87,-9.641 5.6,-6.457 8.41,-13.414 8.41,-20.899 0,-7.46 -3.96,-14.316 -11.83,-20.542 L 2021.37,426.32 2178.38,305.445 c 6.23,-5 9.35,-11.027 9.35,-18.058 0,-4.172 -0.76,-8.086 -2.16,-11.856 -1.51,-3.715 -3.47,-7.031 -5.95,-9.945 -2.47,-2.914 -5.3,-5.422 -8.42,-7.484 -3.11,-2.059 -6.55,-3.137 -10.27,-3.137 -5,0 -10.2,2.535 -15.57,7.508 L 1974.65,390.785 1805.18,262.473 c -4.57,-4.168 -9.77,-6.231 -15.57,-6.231 -7.48,0 -13.81,3.317 -18.98,9.946 -5.23,6.632 -7.79,13.714 -7.79,21.199 0,3.316 0.78,6.531 2.46,9.644 1.66,3.137 3.97,5.949 6.88,8.414 l 156.37,120.875 -156.37,118.993 c -8.31,6.632 -12.48,13.488 -12.48,20.542 0,8.313 2.89,15.297 8.74,20.899 5.78,5.574 12.66,8.383 20.54,8.383 2.89,0 6.23,-0.399 9.97,-1.203 3.72,-0.852 7.06,-2.739 9.97,-5.625 l 165.73,-127.106" /><path
         id="path24"
         style="fill:#ffffff;fill-opacity:1;fill-rule:nonzero;stroke:none"
         d="M 1409.73,454.348 H 1255 c -41.14,0 -61.71,12.254 -61.71,36.765 v 19.895 c 0,25.363 18.29,38.047 54.83,38.047 h 266.01 c 17.88,0 26.82,8.687 26.82,26.144 0,16.196 -8.94,24.285 -26.82,24.285 h -255.41 c -85.14,0 -127.74,-29.461 -127.74,-88.476 v -19.895 c 0,-57.359 43.78,-85.988 131.23,-85.988 h 154.73 c 41.13,0 61.7,-12.258 61.7,-36.77 v -19.89 c 0,-25.367 -18.28,-38.024 -54.85,-38.024 h -266.01 c -17.86,0 -26.8,-8.714 -26.8,-26.195 0,-16.172 8.94,-24.285 26.8,-24.285 h 255.44 c 85.14,0 127.73,29.484 127.73,88.504 v 19.89 c 0,57.336 -43.75,85.993 -131.22,85.993" /><path
         id="path26"
         style="fill:#4997bc;fill-opacity:1;fill-rule:nonzero;stroke:none"
         d="m 560.582,170.703 c -16.172,0 -29.285,13.11 -29.285,29.285 0,16.172 13.113,29.309 29.285,29.309 16.176,0 29.285,-13.137 29.285,-29.309 0,-16.175 -13.109,-29.285 -29.285,-29.285" /><path
         id="path28"
         style="fill:#ffffff;fill-opacity:1;fill-rule:nonzero;stroke:none"
         d="m 560.582,89.0313 c -42.344,0 -81.57,24.6597 -99.93,62.8867 -4.043,8.437 -0.504,18.535 7.911,22.605 8.464,4.067 18.562,0.5 22.578,-7.937 12.984,-26.949 39.582,-43.699 69.441,-43.699 29.859,0 56.457,16.75 69.391,43.699 4.093,8.414 14.215,11.953 22.601,7.887 8.442,-4.02 11.985,-14.118 7.938,-22.555 -18.356,-38.227 -57.586,-62.8867 -99.93,-62.8867" /><path
         id="path30"
         style="fill:#ffffff;fill-opacity:1;fill-rule:nonzero;stroke:none"
         d="m 560.582,0 c -76.297,0 -146.992,44.5039 -180.07,113.344 -4.071,8.488 -0.504,18.582 7.91,22.601 8.437,4.071 18.558,0.504 22.605,-7.91 27.899,-58.0897 85.211,-94.1561 149.555,-94.1561 63.387,0 122.059,36.9688 149.559,94.1331 4.066,8.437 14.214,12.004 22.601,7.91 8.414,-4.043 11.981,-14.141 7.914,-22.578 C 707.551,44.5039 636.855,0 560.582,0" /><path
         id="path32"
         style="fill:#4997bc;fill-opacity:1;fill-rule:nonzero;stroke:none"
         d="m 1642.67,619 c -16.18,0 -29.29,13.105 -29.29,29.281 0,16.176 13.11,29.285 29.29,29.285 16.2,0 29.3,-13.109 29.3,-29.285 0,-16.176 -13.1,-29.281 -29.3,-29.281" /><path
         id="path34"
         style="fill:#ffffff;fill-opacity:1;fill-rule:nonzero;stroke:none"
         d="m 1727.38,672.09 c -6.33,0 -12.38,3.519 -15.3,9.594 -12.96,26.972 -39.53,43.699 -69.41,43.699 -29.87,0 -56.44,-16.727 -69.4,-43.699 -4.06,-8.414 -14.16,-11.954 -22.6,-7.887 -8.46,4.019 -11.98,14.164 -7.93,22.582 18.38,38.172 57.61,62.859 99.93,62.859 42.36,0 81.59,-24.687 99.95,-62.886 4.07,-8.438 0.53,-18.536 -7.93,-22.555 -2.36,-1.156 -4.85,-1.707 -7.31,-1.707" /><path
         id="path36"
         style="fill:#ffffff;fill-opacity:1;fill-rule:nonzero;stroke:none"
         d="m 1807.52,710.641 c -6.31,0 -12.36,3.543 -15.27,9.621 -27.93,58.062 -85.24,94.179 -149.58,94.179 -63.37,0 -122.03,-36.968 -149.56,-94.179 -4.02,-8.438 -14.19,-11.957 -22.6,-7.91 -8.42,4.043 -11.96,14.16 -7.91,22.601 33.1,68.836 103.77,113.34 180.07,113.34 76.3,0 146.99,-44.504 180.07,-113.367 4.07,-8.438 0.52,-18.586 -7.89,-22.602 -2.41,-1.152 -4.87,-1.683 -7.33,-1.683" /><path
         id="path38"
         style="fill:#ffffff;fill-opacity:1;fill-rule:nonzero;stroke:none"
         d="m 777.398,202.32 h 91.34 v -12.578 h -38.55 V 75.9219 H 816.324 V 189.742 h -38.926 v 12.578" /><path
         id="path40"
         style="fill:#ffffff;fill-opacity:1;fill-rule:nonzero;stroke:none"
         d="M 884.258,75.9219 V 207.098 h 13.711 v -44.934 c 0,0 14.644,6.934 28.156,6.934 25.012,0 30.891,-12.434 30.891,-44.957 V 75.9219 h -13.715 v 47.8671 c 0,24.109 -2.762,33.051 -19.563,33.051 -12.984,0 -25.769,-5.473 -25.769,-5.473 V 75.9219 h -13.711" /><path
         id="path42"
         style="fill:#ffffff;fill-opacity:1;fill-rule:nonzero;stroke:none"
         d="m 1039.57,126.902 c 0,22.629 -6.93,30.668 -23.03,30.668 -15.52,0 -24.286,-8.566 -24.466,-30.668 z m 10.22,-39.1286 0.4,-10.7968 c 0,0 -20.85,-2.9141 -35.66,-2.9141 -27.225,0 -36.167,15.9258 -36.167,46.9645 0,34.707 14.992,48.071 38.177,48.071 24.33,0 36.74,-12.809 36.74,-42.77 l -0.75,-10.422 h -60.276 c 0,-19.5427 6.023,-29.7615 23.926,-29.7615 13.69,0 33.61,1.6289 33.61,1.6289" /><path
         id="path44"
         style="fill:#ffffff;fill-opacity:1;fill-rule:nonzero;stroke:none"
         d="m 1163.28,130.926 c 18.46,0 26.12,11.125 26.12,30.66 0,19.363 -7.66,28.332 -26.12,28.332 h -32.02 v -58.992 z m -32.02,-12.461 V 75.9219 h -14.04 V 202.32 h 46.26 c 27.58,0 40.34,-13.332 40.34,-40.734 0,-27.598 -12.76,-43.121 -40.34,-43.121 h -32.22" /><path
         id="path46"
         style="fill:#ffffff;fill-opacity:1;fill-rule:nonzero;stroke:none"
         d="m 1279.64,126.902 c 0,22.629 -6.94,30.668 -23.01,30.668 -15.55,0 -24.31,-8.566 -24.51,-30.668 z m 10.24,-39.1286 0.38,-10.7968 c 0,0 -20.85,-2.9141 -35.66,-2.9141 -27.2,0 -36.17,15.9258 -36.17,46.9645 0,34.707 15,48.071 38.2,48.071 24.29,0 36.69,-12.809 36.69,-42.77 l -0.7,-10.422 h -60.3 c 0,-19.5427 6.03,-29.7615 23.94,-29.7615 13.71,0 33.62,1.6289 33.62,1.6289" /><path
         id="path48"
         style="fill:#ffffff;fill-opacity:1;fill-rule:nonzero;stroke:none"
         d="m 1314.72,167.266 h 13.51 v -12.434 c 0,0 15.9,11 33.46,14.414 v -13.863 c -17.18,-3.465 -33.26,-12.43 -33.26,-12.43 V 75.9219 h -13.71 v 91.3441" /><path
         id="path50"
         style="fill:#ffffff;fill-opacity:1;fill-rule:nonzero;stroke:none"
         d="m 1395.49,75.9219 h -13.71 v 79.4611 h -11.5 v 11.883 h 11.5 v 8.211 c 0,26.32 6.73,33.453 24.66,33.453 6.23,0 18.46,-1.309 18.46,-1.309 l -0.2,-11.301 c 0,0 -10.22,0.352 -15.7,0.352 -10.22,0 -13.51,-4.395 -13.51,-21.395 v -8.011 h 26.47 v -11.883 h -26.47 V 75.9219" /><path
         id="path52"
         style="fill:#ffffff;fill-opacity:1;fill-rule:nonzero;stroke:none"
         d="m 1493.96,126.902 c 0,22.629 -6.95,30.668 -23.03,30.668 -15.54,0 -24.28,-8.566 -24.46,-30.668 z m 10.25,-39.1286 0.33,-10.7968 c 0,0 -20.8,-2.9141 -35.62,-2.9141 -27.25,0 -36.16,15.9258 -36.16,46.9645 0,34.707 14.97,48.071 38.17,48.071 24.31,0 36.72,-12.809 36.72,-42.77 l -0.7,-10.422 h -60.3 c 0,-19.5427 6,-29.7615 23.93,-29.7615 13.69,0 33.63,1.6289 33.63,1.6289" /><path
         id="path54"
         style="fill:#ffffff;fill-opacity:1;fill-rule:nonzero;stroke:none"
         d="m 1588.04,166.336 -0.53,-11.152 c 0,0 -14.64,1.656 -21.57,1.656 -21.02,0 -26.67,-9.141 -26.67,-33.602 0,-27.0466 4.19,-36.9177 26.85,-36.9177 6.95,0 21.57,1.6563 21.57,1.6563 l 0.55,-11.3516 c 0,0 -17,-2.5625 -25.41,-2.5625 -29.03,0 -37.62,13.3359 -37.62,49.1755 0,33.051 10.75,45.86 37.99,45.86 8.42,0 24.84,-2.762 24.84,-2.762" /><path
         id="path56"
         style="fill:#ffffff;fill-opacity:1;fill-rule:nonzero;stroke:none"
         d="m 1626.94,155.383 v -43.649 c 0,-19.9371 1.31,-25.5895 13.17,-25.5895 5.12,0 16.27,1.0782 16.27,1.0782 l 0.9,-11.3008 c 0,0 -12.23,-2.0078 -18.61,-2.0078 -18.83,0 -25.24,7.082 -25.24,33.4529 v 48.016 h -12.93 v 11.883 h 12.93 v 27.953 h 13.51 V 167.266 H 1656 v -11.883 h -29.06" /><path
         id="path58"
         style="fill:#ffffff;fill-opacity:1;fill-rule:nonzero;stroke:none"
         d="m 1715.4,202.32 h 14.04 V 75.9219 H 1715.4 V 202.32" /><path
         id="path60"
         style="fill:#ffffff;fill-opacity:1;fill-rule:nonzero;stroke:none"
         d="m 1757.97,75.9219 v 91.3441 h 13.51 v -6.407 c 0,0 14.77,8.239 28.3,8.239 25.22,0 30.89,-12.434 30.89,-44.957 V 75.9219 h -13.53 v 47.8671 c 0,24.109 -2.71,33.051 -19.72,33.051 -13.18,0 -25.76,-6.754 -25.76,-6.754 V 75.9219 h -13.69" /><path
         id="path62"
         style="fill:#ffffff;fill-opacity:1;fill-rule:nonzero;stroke:none"
         d="m 1873.8,155.383 v -43.649 c 0,-19.9371 1.28,-25.5895 13.16,-25.5895 5.12,0 16.24,1.0782 16.24,1.0782 l 0.93,-11.3008 c 0,0 -12.25,-2.0078 -18.63,-2.0078 -18.84,0 -25.24,7.082 -25.24,33.4529 v 48.016 h -12.96 v 11.883 h 12.96 v 27.953 h 13.54 v -27.953 h 29.03 v -11.883 h -29.03" /><path
         id="path64"
         style="fill:#ffffff;fill-opacity:1;fill-rule:nonzero;stroke:none"
         d="m 1976.84,126.902 c 0,22.629 -6.93,30.668 -23.03,30.668 -15.52,0 -24.28,-8.566 -24.48,-30.668 z m 10.2,-39.1286 0.4,-10.7968 c 0,0 -20.85,-2.9141 -35.64,-2.9141 -27.22,0 -36.16,15.9258 -36.16,46.9645 0,34.707 14.97,48.071 38.17,48.071 24.31,0 36.72,-12.809 36.72,-42.77 l -0.73,-10.422 h -60.27 c 0,-19.5427 6.02,-29.7615 23.93,-29.7615 13.74,0 33.58,1.6289 33.58,1.6289" /><path
         id="path66"
         style="fill:#ffffff;fill-opacity:1;fill-rule:nonzero;stroke:none"
         d="m 2011.93,167.266 h 13.53 v -12.434 c 0,0 15.87,11 33.41,14.414 v -13.863 c -17.18,-3.465 -33.26,-12.43 -33.26,-12.43 V 75.9219 h -13.68 v 91.3441" /><path
         id="path68"
         style="fill:#ffffff;fill-opacity:1;fill-rule:nonzero;stroke:none"
         d="m 2132.32,166.336 -0.55,-11.152 c 0,0 -14.59,1.656 -21.55,1.656 -21.02,0 -26.67,-9.141 -26.67,-33.602 0,-27.0466 4.2,-36.9177 26.82,-36.9177 6.94,0 21.6,1.6563 21.6,1.6563 l 0.53,-11.3516 c 0,0 -17,-2.5625 -25.39,-2.5625 -29.03,0 -37.65,13.3359 -37.65,49.1755 0,33.051 10.78,45.86 38,45.86 8.42,0 24.86,-2.762 24.86,-2.762" /><path
         id="path70"
         style="fill:#ffffff;fill-opacity:1;fill-rule:nonzero;stroke:none"
         d="m 2209.05,126.902 c 0,22.629 -6.93,30.668 -23.03,30.668 -15.52,0 -24.29,-8.566 -24.46,-30.668 z m 10.22,-39.1286 0.38,-10.7968 c 0,0 -20.82,-2.9141 -35.61,-2.9141 -27.25,0 -36.17,15.9258 -36.17,46.9645 0,34.707 14.94,48.071 38.15,48.071 24.31,0 36.74,-12.809 36.74,-42.77 l -0.75,-10.422 h -60.28 c 0,-19.5427 6.03,-29.7615 23.94,-29.7615 13.71,0 33.6,1.6289 33.6,1.6289" /><path
         id="path72"
         style="fill:#ffffff;fill-opacity:1;fill-rule:nonzero;stroke:none"
         d="M 2257.85,149.531 V 87.9766 c 2.36,-0.375 11.85,-2.0078 19.71,-2.0078 20.12,0 26.67,10.3945 26.67,36.7192 0,25.011 -7.86,34.152 -21.17,34.152 -12.43,0 -25.21,-7.309 -25.21,-7.309 z m -13.69,17.735 h 13.51 v -6.582 c 0,0 13.86,8.414 27.38,8.414 23.03,0 33.07,-14.09 33.07,-46.41 0,-35.8169 -11.7,-48.6255 -39.8,-48.6255 -8.62,0 -17.94,1.457 -20.47,2.0117 V 35.3398 h -13.69 V 167.266" /><path
         id="path74"
         style="fill:#ffffff;fill-opacity:1;fill-rule:nonzero;stroke:none"
         d="m 2358.16,155.383 v -43.649 c 0,-19.9371 1.22,-25.5895 13.13,-25.5895 5.12,0 16.27,1.0782 16.27,1.0782 l 0.91,-11.3008 c 0,0 -12.23,-2.0078 -18.64,-2.0078 -18.83,0 -25.19,7.082 -25.19,33.4529 v 48.016 h -13.01 v 11.883 h 13.01 v 27.953 h 13.52 v -27.953 h 29.03 v -11.883 h -29.03" /><path
         id="path76"
         style="fill:#ffffff;fill-opacity:1;fill-rule:nonzero;stroke:none"
         d="m 2403.99,167.266 h 13.69 V 75.9219 h -13.69 z m 0,36.539 h 13.69 v -15.899 h -13.69 v 15.899" /><path
         id="path78"
         style="fill:#ffffff;fill-opacity:1;fill-rule:nonzero;stroke:none"
         d="m 2504.12,122.688 c 0,25.39 -5.48,34.507 -25.04,34.507 -19.36,0 -25.04,-9.117 -25.04,-34.507 0,-25.9692 3.49,-36.7192 25.04,-36.7192 21.72,0 25.04,10.75 25.04,36.7192 z m 14.06,0 c 0,-33.2544 -8.21,-48.6255 -39.1,-48.6255 -30.69,0 -39.08,15.3711 -39.08,48.6255 0,31.414 10.2,46.41 39.08,46.41 29.06,0 39.1,-14.996 39.1,-46.41" /><path
         id="path80"
         style="fill:#ffffff;fill-opacity:1;fill-rule:nonzero;stroke:none"
         d="M 2540.49,75.9219 V 167.266 H 2554 v -6.407 c 0,0 14.79,8.239 28.3,8.239 25.22,0 30.89,-12.434 30.89,-44.957 V 75.9219 h -13.51 v 47.8671 c 0,24.109 -2.74,33.051 -19.74,33.051 -13.16,0 -25.77,-6.754 -25.77,-6.754 V 75.9219 h -13.68" /></g></g></svg>